<?xml version="1.0" standalone="no"?>
<!DOCTYPE svg PUBLIC "-//W3C//DTD SVG 20010904//EN"
 "http://www.w3.org/TR/2001/REC-SVG-20010904/DTD/svg10.dtd">
<svg version="1.0" xmlns="http://www.w3.org/2000/svg"
 width="512.000000pt" height="512.000000pt" viewBox="0 0 512.000000 512.000000"
 preserveAspectRatio="xMidYMid meet">

<g transform="translate(0.000000,512.000000) scale(0.100000,-0.100000)"
fill="#000000" stroke="none">
<path d="M2305 5114 c-285 -41 -429 -74 -615 -141 -246 -88 -515 -238 -730
-407 -110 -86 -354 -336 -438 -448 -267 -356 -426 -731 -499 -1173 -26 -158
-26 -612 0 -770 89 -542 319 -1006 687 -1388 400 -416 881 -667 1465 -764 158
-26 611 -26 770 0 441 73 816 232 1171 498 127 95 388 356 483 483 266 355
425 730 498 1171 14 87 18 167 18 385 0 301 -9 381 -67 620 -82 340 -254 690
-482 980 -87 110 -336 354 -450 439 -347 260 -715 419 -1140 492 -97 17 -173
22 -381 24 -143 2 -273 1 -290 -1z m1434 -1410 c67 -19 141 -90 159 -150 9
-31 12 -226 12 -776 l0 -734 -25 -51 c-15 -28 -42 -63 -60 -78 -76 -57 -45
-55 -807 -55 l-703 0 -325 -225 c-193 -134 -338 -227 -357 -231 -40 -8 -98 20
-127 59 -19 26 -21 45 -24 213 l-3 184 -42 0 c-82 1 -171 62 -208 145 -17 38
-19 85 -19 774 0 540 3 744 12 774 18 61 83 125 148 147 53 19 104 19 1186 20
1000 0 1136 -2 1183 -16z"/>
</g>
</svg>
