<?xml version="1.0" standalone="no"?>
<!DOCTYPE svg PUBLIC "-//W3C//DTD SVG 20010904//EN"
 "http://www.w3.org/TR/2001/REC-SVG-20010904/DTD/svg10.dtd">
<svg version="1.0" xmlns="http://www.w3.org/2000/svg"
 width="512.000000pt" height="512.000000pt" viewBox="0 0 512.000000 512.000000"
 preserveAspectRatio="xMidYMid meet">

<g transform="translate(0.000000,512.000000) scale(0.100000,-0.100000)"
fill="#000000" stroke="none">
<path d="M2235 5104 c-467 -63 -852 -221 -1235 -508 -110 -82 -360 -327 -446
-436 -271 -345 -444 -731 -521 -1160 -31 -178 -43 -531 -23 -713 84 -777 506
-1457 1173 -1892 265 -172 603 -303 937 -362 199 -35 551 -44 751 -19 597 75
1117 335 1534 767 375 389 604 850 693 1397 25 156 24 611 -1 772 -84 528
-322 1006 -692 1389 -424 438 -952 699 -1560 770 -124 15 -488 12 -610 -5z
m-581 -1028 c23 -13 55 -41 72 -63 17 -21 89 -106 159 -188 165 -193 181 -216
194 -276 15 -70 -1 -134 -53 -208 l-43 -61 -164 168 c-194 199 -499 566 -499
600 0 10 134 58 180 64 42 6 111 -11 154 -36z m-379 -123 c76 -117 327 -412
525 -617 l127 -131 -29 -39 c-55 -76 -72 -186 -43 -284 33 -111 242 -390 440
-587 197 -197 478 -407 586 -439 99 -30 208 -14 285 42 l39 29 130 -126 c207
-201 485 -438 607 -518 21 -14 38 -29 38 -32 0 -10 -136 -81 -250 -131 -297
-132 -407 -139 -701 -44 -888 285 -1814 1266 -1998 2117 -35 161 -27 249 40
422 39 102 168 365 179 365 4 0 16 -12 25 -27z m2332 -1896 c39 -20 365 -291
436 -362 41 -41 68 -106 69 -165 0 -54 -47 -210 -64 -210 -34 0 -401 305 -600
499 l-168 163 57 41 c97 69 181 80 270 34z"/>
</g>
</svg>
