<?xml version="1.0" standalone="no"?>
<!DOCTYPE svg PUBLIC "-//W3C//DTD SVG 20010904//EN"
 "http://www.w3.org/TR/2001/REC-SVG-20010904/DTD/svg10.dtd">
<svg version="1.0" xmlns="http://www.w3.org/2000/svg"
 width="512.000000pt" height="512.000000pt" viewBox="0 0 512.000000 512.000000"
 preserveAspectRatio="xMidYMid meet">

<g transform="translate(0.000000,512.000000) scale(0.100000,-0.100000)"
fill="#000000" stroke="none">
<path d="M2340 5113 c-800 -78 -1487 -489 -1924 -1151 -546 -828 -557 -1924
-28 -2766 277 -440 701 -802 1173 -1000 217 -91 440 -152 662 -181 179 -23
534 -20 711 5 552 82 1047 330 1442 724 391 391 643 893 724 1442 25 177 28
532 5 711 -50 375 -193 759 -403 1073 -427 641 -1086 1046 -1848 1135 -115 13
-413 18 -514 8z m-590 -1673 l23 -16 -258 -442 c-142 -243 -263 -442 -268
-442 -12 0 -287 160 -287 167 0 5 499 863 512 880 7 8 43 -8 132 -60 68 -40
133 -79 146 -87z m2259 -352 c85 -266 156 -488 158 -493 3 -9 -317 -119 -323
-112 -8 9 -314 980 -310 984 6 6 296 101 311 102 6 1 80 -216 164 -481z
m-1092 237 l328 -55 109 25 c60 14 110 24 111 23 1 -2 58 -176 125 -388 68
-212 125 -390 127 -396 2 -7 -80 -77 -183 -157 l-188 -145 -399 391 c-291 287
-406 393 -425 395 -65 9 -164 -59 -176 -120 -2 -13 -9 -56 -15 -96 -13 -89
-37 -137 -89 -184 -46 -41 -73 -52 -108 -44 l-24 6 1 208 0 207 217 192 c136
120 225 192 239 192 12 1 169 -24 350 -54z m-865 -126 c40 -1 84 -4 97 -8 23
-6 22 -7 -20 -43 -24 -20 -63 -54 -86 -76 l-43 -40 0 -223 c0 -268 5 -293 63
-320 93 -42 189 -16 272 72 57 61 81 114 96 210 12 82 25 117 51 133 19 12 10
20 601 -562 288 -284 317 -317 317 -346 0 -66 -75 -92 -128 -44 -127 117 -423
379 -448 397 -49 36 -106 4 -86 -48 4 -11 98 -101 209 -201 201 -179 223 -202
223 -236 0 -29 -40 -64 -74 -64 -26 0 -67 32 -261 205 -147 131 -237 205 -250
205 -34 0 -61 -35 -49 -64 5 -13 96 -101 202 -196 120 -107 194 -181 198 -197
10 -37 -24 -77 -68 -81 -32 -3 -47 9 -219 163 -101 91 -195 168 -207 171 -32
9 -67 -25 -59 -58 4 -13 79 -88 177 -176 149 -134 170 -156 170 -183 0 -34
-38 -79 -67 -79 -25 0 -53 20 -149 107 l-82 73 -4 59 c-5 68 -37 120 -87 141
-27 11 -29 15 -20 33 6 11 9 46 7 79 -5 66 -25 100 -80 137 -35 23 -36 25 -31
75 3 40 0 60 -19 96 -42 82 -123 115 -212 87 -33 -11 -52 -13 -54 -7 -9 25
-59 74 -89 86 -42 18 -105 18 -146 0 -18 -7 -52 -34 -77 -60 -24 -25 -47 -46
-50 -46 -3 0 -20 27 -39 59 -25 44 -47 66 -88 91 -29 18 -52 37 -51 41 2 4 98
170 213 368 l210 360 82 -45 c74 -40 87 -44 155 -45z m-238 -830 c18 -14 26
-30 26 -52 0 -26 -14 -45 -77 -109 -65 -65 -83 -78 -110 -78 -35 0 -73 38 -73
73 0 13 33 54 83 104 89 89 107 96 151 62z m281 -89 c10 -11 18 -34 18 -51 0
-27 -18 -50 -125 -155 -136 -136 -157 -146 -203 -99 -47 46 -37 66 98 201 111
113 126 124 158 124 23 0 42 -7 54 -20z m114 -246 c38 -48 29 -69 -73 -170
-103 -104 -127 -114 -171 -69 -45 44 -35 69 68 172 78 78 98 93 124 93 22 0
38 -8 52 -26z m104 -256 c31 -37 22 -67 -41 -130 -33 -32 -68 -58 -79 -58 -36
0 -73 38 -73 74 0 27 11 43 60 90 52 50 64 57 88 52 15 -4 35 -16 45 -28z"/>
</g>
</svg>
