<?xml version="1.0" standalone="no"?>
<!DOCTYPE svg PUBLIC "-//W3C//DTD SVG 20010904//EN"
 "http://www.w3.org/TR/2001/REC-SVG-20010904/DTD/svg10.dtd">
<svg version="1.0" xmlns="http://www.w3.org/2000/svg"
 width="512.000000pt" height="512.000000pt" viewBox="0 0 512.000000 512.000000"
 preserveAspectRatio="xMidYMid meet">

<g transform="translate(0.000000,512.000000) scale(0.100000,-0.100000)"
fill="#000000" stroke="none">
<path d="M2305 5114 c-285 -41 -429 -74 -615 -141 -246 -88 -515 -238 -730
-407 -110 -86 -354 -336 -438 -448 -267 -356 -426 -731 -499 -1173 -26 -158
-26 -612 0 -770 89 -542 319 -1006 687 -1388 400 -416 881 -667 1465 -764 158
-26 611 -26 770 0 441 73 816 232 1171 498 127 95 388 356 483 483 266 355
425 730 498 1171 14 87 18 167 18 385 0 301 -9 381 -67 620 -82 340 -254 690
-482 980 -87 110 -336 354 -450 439 -347 260 -715 419 -1140 492 -97 17 -173
22 -381 24 -143 2 -273 1 -290 -1z m515 -533 c0 -10 11 -128 25 -262 19 -178
30 -248 41 -260 9 -10 39 -23 67 -29 80 -19 222 -76 328 -132 71 -37 102 -49
120 -45 13 4 112 79 219 167 107 88 199 160 203 160 15 0 358 -352 353 -364
-2 -6 -74 -96 -160 -201 -86 -104 -159 -201 -162 -214 -5 -18 6 -49 44 -120
57 -107 100 -214 127 -314 10 -36 25 -73 34 -81 12 -11 88 -23 261 -41 135
-14 253 -25 262 -25 17 0 18 -18 18 -260 0 -243 -1 -260 -18 -260 -10 0 -128
-12 -262 -26 -171 -18 -250 -30 -261 -40 -9 -8 -24 -45 -34 -81 -27 -100 -70
-207 -127 -314 -38 -71 -49 -102 -44 -120 3 -13 76 -109 162 -214 86 -104 158
-195 160 -201 7 -16 -343 -367 -359 -361 -6 3 -97 76 -202 161 -104 86 -201
159 -214 163 -18 4 -49 -8 -120 -45 -107 -57 -214 -100 -314 -127 -36 -10 -73
-25 -81 -34 -11 -12 -23 -87 -41 -260 -14 -134 -25 -252 -25 -262 0 -18 -13
-19 -260 -19 -248 0 -260 1 -260 19 0 10 -11 128 -26 262 -17 171 -29 248 -40
260 -8 9 -45 24 -81 34 -101 27 -207 70 -311 126 -51 27 -101 49 -112 49 -18
0 -72 -41 -333 -254 l-98 -80 -181 182 -182 181 80 98 c213 261 254 315 254
333 0 11 -22 61 -49 112 -56 104 -99 210 -126 311 -10 36 -25 73 -34 81 -12
11 -87 23 -260 41 -134 14 -252 25 -262 25 -18 0 -19 13 -19 260 0 248 1 260
19 260 10 0 128 11 262 26 171 17 248 29 260 40 9 8 24 45 34 81 27 101 70
207 126 311 27 51 49 101 49 112 0 18 -41 72 -254 333 l-80 98 182 181 181
182 98 -80 c261 -213 315 -254 333 -254 11 0 61 22 112 49 104 56 210 99 311
126 36 10 73 25 81 34 10 11 22 90 40 261 14 134 26 252 26 262 0 17 17 18
260 18 247 0 260 -1 260 -19z"/>
<path d="M2375 3424 c-156 -35 -299 -110 -414 -219 -183 -173 -268 -358 -278
-606 -11 -261 70 -473 250 -657 208 -212 514 -306 805 -246 343 70 618 347
688 693 22 112 15 304 -15 410 -85 294 -318 526 -613 612 -99 29 -322 35 -423
13z"/>
</g>
</svg>
